<svg style="display: none;" aria-hidden="true" xmlns="http://www.w3.org/2000/svg" xmlns:xlink="http://www.w3.org/1999/xlink"><symbol viewBox="0 0 54 26" fill="currentColor" id="svg-arrow" xmlns="http://www.w3.org/2000/svg"><desc>Created with Pixso.</desc><defs/><path id="aarrow" d="M54 12.7173L54 13.2827C48.9015 16.1089 44.6129 20.3892 43.0396 26C43.0386 26.0039 42.6787 25.769 42.6594 25.7622C42.6401 25.7554 42.6808 25.7656 42.682 25.7612C43.8744 21.4692 48.3916 16.3779 51.6978 13.2827C35.5363 13.6821 16.1477 13.0806 0 13.5654L0 12.4346L51.6978 12.7173C48.3916 9.62207 43.9744 4.33936 42.7722 0L43.3268 0C44.8864 5.62207 48.2107 9.04346 54 12.7173Z" fill-rule="evenodd"/></symbol><symbol viewBox="0 0 24 24" fill="currentColor" id="svg-cart" xmlns="http://www.w3.org/2000/svg"><path d="M1 2.5H2.65424C3.13263 2.5 3.37183 2.5 3.56628 2.58674C3.73771 2.66321 3.88415 2.78638 3.98886 2.94217C4.10763 3.11888 4.14862 3.35454 4.23058 3.82585L4.6087 6M4.6087 6L5.49173 11.0774C5.67091 12.1077 5.7605 12.6228 6.02583 12.9939C6.25945 13.3207 6.58606 13.5695 6.96311 13.708C7.39133 13.8654 7.91176 13.815 8.95264 13.7143L18.614 12.7793C19.6298 12.681 20.1378 12.6318 20.5221 12.4033C20.8653 12.1993 21.1395 11.8972 21.3095 11.536C21.5 11.1314 21.5 10.6211 21.5 9.6005V9.6005C21.5 8.51582 21.5 7.97348 21.2922 7.55394C21.1068 7.17971 20.809 6.8729 20.4404 6.67654C20.0272 6.4564 19.4851 6.44036 18.4009 6.40826L4.6087 6Z" stroke="#262F56" stroke-width="1.8" stroke-linecap="round" stroke-linejoin="round"/><circle cx="8.5" cy="19" r="2" stroke="#262F56" stroke-width="1.8"/><circle cx="18" cy="19" r="2" stroke="#262F56" stroke-width="1.8"/></symbol><symbol viewBox="0 0 16 16" fill="currentColor" id="svg-clock" xmlns="http://www.w3.org/2000/svg"><desc>Created with Pixso.</desc><defs/><path id="cclock-fill" d="M16 8C16 12.4183 12.4183 16 8 16C3.58167 16 0 12.4183 0 8C0 3.58167 3.58167 0 8 0C12.4183 0 16 3.58167 16 8ZM8 3.5C8 3.22388 7.77612 3 7.5 3C7.22388 3 7 3.22388 7 3.5L7 9C7 9.17944 7.09619 9.34509 7.25195 9.43408L10.752 11.4341C10.9917 11.5712 11.2971 11.4878 11.4341 11.248C11.5712 11.0083 11.4878 10.7029 11.248 10.5659L8 8.70984L8 3.5Z" clip-rule="evenodd" fill-rule="evenodd" fill-opacity="1.000000"/></symbol><symbol viewBox="0 0 24 24" fill="currentColor" id="svg-instagram" xmlns="http://www.w3.org/2000/svg"><desc>Created with Pixso.</desc><defs><clipPath id="dclip1_7680"><rect id="dInstagram / Negative" width="24.000000" height="24.000000" fill="white"/></clipPath></defs><g clip-path="url(#dclip1_7680)"><path id="dVector" d="M12 2.16089C15.2063 2.16089 15.5859 2.17505 16.8469 2.2312C18.0188 2.28271 18.6516 2.47974 19.0734 2.6438C19.6313 2.85938 20.0344 3.12183 20.4516 3.53906C20.8734 3.96094 21.1313 4.35938 21.3469 4.91724C21.5109 5.33911 21.7078 5.97656 21.7594 7.1438C21.8156 8.40942 21.8297 8.78906 21.8297 11.9907C21.8297 15.1968 21.8156 15.5767 21.7594 16.8374C21.7078 18.0093 21.5109 18.6421 21.3469 19.064C21.1313 19.6218 20.8687 20.0249 20.4516 20.4421C20.0297 20.864 19.6313 21.1218 19.0734 21.3374C18.6516 21.5015 18.0141 21.6985 16.8469 21.75C15.5813 21.8062 15.2016 21.8203 12 21.8203C8.79375 21.8203 8.41406 21.8062 7.15312 21.75C5.98125 21.6985 5.34843 21.5015 4.92656 21.3374C4.36874 21.1218 3.96562 20.8594 3.54843 20.4421C3.12656 20.0203 2.86874 19.6218 2.65312 19.064C2.48906 18.6421 2.29219 18.0046 2.24063 16.8374C2.18437 15.5718 2.17032 15.1921 2.17032 11.9907C2.17032 8.78442 2.18437 8.40479 2.24063 7.1438C2.29219 5.97192 2.48906 5.33911 2.65312 4.91724C2.86874 4.35938 3.13126 3.9563 3.54843 3.53906C3.97031 3.11719 4.36874 2.85938 4.92656 2.6438C5.34843 2.47974 5.98593 2.28271 7.15312 2.2312C8.41406 2.17505 8.79375 2.16089 12 2.16089ZM12 0C8.74219 0 8.33438 0.0141602 7.05469 0.0703125C5.77969 0.126465 4.90312 0.332764 4.14375 0.628174C3.35156 0.9375 2.68124 1.34521 2.01562 2.01562C1.34531 2.68115 0.9375 3.35156 0.628128 4.13916C0.332809 4.90308 0.126556 5.7749 0.0703125 7.05005C0.0140686 8.33447 0 8.74219 0 12C0 15.2578 0.0140686 15.6655 0.0703125 16.9453C0.126556 18.2202 0.332809 19.0969 0.628128 19.8562C0.9375 20.6484 1.34531 21.3188 2.01562 21.9844C2.68124 22.6499 3.35156 23.0625 4.13907 23.3672C4.90312 23.6626 5.77499 23.8687 7.05 23.925C8.32968 23.9812 8.7375 23.9954 11.9953 23.9954C15.2531 23.9954 15.6609 23.9812 16.9406 23.925C18.2156 23.8687 19.0922 23.6626 19.8516 23.3672C20.6391 23.0625 21.3094 22.6499 21.975 21.9844C22.6406 21.3188 23.0531 20.6484 23.3578 19.8608C23.6531 19.0969 23.8594 18.2251 23.9156 16.95C23.9719 15.6704 23.9859 15.2625 23.9859 12.0046C23.9859 8.74683 23.9719 8.33911 23.9156 7.05933C23.8594 5.78442 23.6531 4.90771 23.3578 4.14844C23.0625 3.35156 22.6547 2.68115 21.9844 2.01562C21.3188 1.3501 20.6484 0.9375 19.8609 0.632812C19.0969 0.337402 18.225 0.131348 16.95 0.0749512C15.6656 0.0141602 15.2578 0 12 0Z" fill-rule="nonzero"/><path id="dVector" d="M12 5.83594C8.59688 5.83594 5.83594 8.59692 5.83594 12C5.83594 15.4031 8.59688 18.1641 12 18.1641C15.4031 18.1641 18.1641 15.4031 18.1641 12C18.1641 8.59692 15.4031 5.83594 12 5.83594ZM12 15.9985C9.79219 15.9985 8.00156 14.2078 8.00156 12C8.00156 9.79224 9.79219 8.00146 12 8.00146C14.2078 8.00146 15.9984 9.79224 15.9984 12C15.9984 14.2078 14.2078 15.9985 12 15.9985Z" fill-rule="nonzero"/><path id="dVector" d="M19.8469 5.59229C19.8469 6.38916 19.2 7.03149 18.4078 7.03149C17.6109 7.03149 16.9688 6.38452 16.9688 5.59229C16.9688 4.79541 17.6156 4.15332 18.4078 4.15332C19.2 4.15332 19.8469 4.80029 19.8469 5.59229Z" fill-rule="nonzero"/></g></symbol><symbol viewBox="0 0 12 16" fill="currentColor" id="svg-location" xmlns="http://www.w3.org/2000/svg"><desc>Created with Pixso.</desc><defs/><path id="eSubtract" d="M6 16C6 16 12 10.3137 12 6C12 2.68628 9.31372 0 6 0C2.68628 0 0 2.68628 0 6C0 10.3137 6 16 6 16ZM6 3C4.34314 3 3 4.34314 3 6C3 7.65686 4.34314 9 6 9C7.65686 9 9 7.65686 9 6C9 4.34314 7.65686 3 6 3Z" clip-rule="evenodd" fill-rule="evenodd" fill-opacity="1.000000"/></symbol><symbol viewBox="0 0 24 24" fill="currentColor" id="svg-medium" xmlns="http://www.w3.org/2000/svg"><desc>Created with Pixso.</desc><defs><clipPath id="fclip1_7683"><rect id="fMedium / Negative" width="24.000000" height="24.000000" fill="white"/></clipPath></defs><g clip-path="url(#fclip1_7683)"><path id="fVector" d="M13.5374 11.8276C13.5374 15.5984 10.507 18.6553 6.76883 18.6553C3.03073 18.6553 0 15.5977 0 11.8276C0 8.05762 3.03049 5 6.76883 5C10.5072 5 13.5374 8.05688 13.5374 11.8276Z" fill-rule="nonzero"/><path id="fVector" d="M20.9629 11.8281C20.9629 15.3774 19.4476 18.2559 17.5785 18.2559C15.7093 18.2559 14.194 15.3774 14.194 11.8281C14.194 8.27881 15.709 5.40039 17.5782 5.40039C19.4474 5.40039 20.9626 8.27783 20.9626 11.8281L20.9629 11.8281Z" fill-rule="nonzero"/><path id="fVector" d="M24.0002 11.8276C24.0002 15.0068 23.4674 17.5859 22.8099 17.5859C22.1525 17.5859 21.6199 15.0076 21.6199 11.8276C21.6199 8.64746 22.1527 6.06934 22.8099 6.06934C23.4672 6.06934 24.0002 8.64746 24.0002 11.8276Z" fill-rule="nonzero"/></g></symbol><symbol viewBox="0 0 43.6879 48.3689" fill="currentColor" id="svg-play-button" xmlns="http://www.w3.org/2000/svg"><desc>Created with Pixso.</desc><defs/><path id="gplay-fill" d="M41.484 27.9263L6.73227 47.7661C3.78175 49.4506 0 47.4132 0 44.0242L0 4.3446C0 0.955566 3.78175 -1.08167 6.73227 0.602783L41.484 20.4425C44.4226 22.1201 44.4226 26.2487 41.484 27.9263Z" fill-rule="nonzero"/></symbol><symbol viewBox="0 0 40 32" fill="currentColor" id="svg-quotes" xmlns="http://www.w3.org/2000/svg"><desc>Created with Pixso.</desc><defs/><path id="hSecond Level/PARAGRAPH" d="M2.93756 30.1589C5.2319 32.6138 9.11462 32.6138 11.5855 30.1589C13.8798 27.7041 13.8798 24.022 11.409 21.7424C10.1736 20.5151 8.76166 20.1643 7.34976 19.8137C4.52597 19.2876 0.290253 9.46851 13.8798 0.526123L13.5268 0C6.29083 3.68213 4.70245 7.18896 2.76108 10.3452C-1.12164 17.5342 -0.768677 26.6521 2.93756 30.1589ZM29.0578 30.1589C31.3521 32.6138 35.2348 32.6138 37.7057 30.1589C40 27.7041 40 24.022 37.5292 21.7424C36.2938 20.5151 34.8818 20.1643 33.4699 19.8137C30.6461 19.2876 26.4104 9.46851 40 0.526123L39.647 0C32.411 3.68213 30.8226 7.18896 28.8813 10.3452C24.9985 17.5342 25.3515 26.6521 29.0578 30.1589Z" fill-rule="nonzero"/></symbol><symbol viewBox="0 0 26 25" fill="currentColor" id="svg-star" xmlns="http://www.w3.org/2000/svg"><path d="M5.86989 24.6799C5.24192 25.0026 4.53088 24.4386 4.6573 23.7179L6.00561 16.0325L0.281821 10.578C-0.253098 10.0682 0.0238023 9.13617 0.74041 9.03437L8.70043 7.90358L12.2496 0.872945C12.5693 0.239617 13.4354 0.239617 13.7551 0.872945L17.3043 7.90358L25.2644 9.03437C25.981 9.13617 26.2579 10.0682 25.7229 10.578L19.9992 16.0325L21.3475 23.7179C21.4739 24.4386 20.7628 25.0026 20.1349 24.6799L13.0024 21.014L5.86989 24.6799Z"/></symbol><symbol viewBox="0 0 24 24" fill="currentColor" id="svg-tik-tok" xmlns="http://www.w3.org/2000/svg"><desc>Created with Pixso.</desc><defs><clipPath id="jclip1_7681"><rect id="jTikTok / Negative" width="24.000000" height="24.000000" fill="white"/></clipPath></defs><g clip-path="url(#jclip1_7681)"><path id="jVector" d="M17.0727 0L13.028 0L13.028 16.3479C13.028 18.2957 11.4723 19.8958 9.53641 19.8958C7.60049 19.8958 6.04485 18.2957 6.04485 16.3479C6.04485 14.4348 7.56592 12.8696 9.43272 12.8L9.43272 8.69556C5.31888 8.76514 2.00015 12.1392 2.00015 16.3479C2.00015 20.5913 5.38802 24 9.571 24C13.7539 24 17.1418 20.5566 17.1418 16.3479L17.1418 7.96509C18.6629 9.07837 20.5296 9.73901 22.5002 9.77393L22.5002 5.66968C19.458 5.56519 17.0727 3.06079 17.0727 0Z" fill-rule="nonzero"/></g></symbol><symbol viewBox="0 0 24 19.5007" fill="currentColor" id="svg-twitter" xmlns="http://www.w3.org/2000/svg"><desc>Created with Pixso.</desc><defs/><path id="kVector" d="M7.55016 19.5007C16.6045 19.5007 21.5583 11.9973 21.5583 5.49268C21.5583 5.28174 21.5536 5.06592 21.5442 4.85498C22.5079 4.1582 23.3395 3.29492 24 2.30615C23.1025 2.70532 22.1496 2.96606 21.1739 3.07959C22.2013 2.46362 22.9705 1.49609 23.3391 0.356445C22.3726 0.929199 21.3156 1.33325 20.2134 1.55127C19.4708 0.762207 18.489 0.239746 17.4197 0.0646973C16.3504 -0.110352 15.2532 0.0717773 14.2977 0.582764C13.3423 1.09399 12.5818 1.90552 12.1339 2.89209C11.6859 3.87866 11.5754 4.98535 11.8195 6.04102C9.8625 5.94287 7.94794 5.43433 6.19998 4.54883C4.45203 3.66333 2.90969 2.42017 1.67297 0.900146C1.0444 1.98389 0.852058 3.26636 1.13503 4.48682C1.41801 5.70728 2.15506 6.77417 3.1964 7.4707C2.41463 7.4458 1.64998 7.23535 0.965622 6.85669L0.965622 6.91748C0.964928 8.05493 1.3581 9.15723 2.07831 10.0376C2.79852 10.9177 3.80132 11.5212 4.91625 11.7456C4.19205 11.9438 3.43198 11.9727 2.69485 11.8301C3.00945 12.8081 3.62157 13.6636 4.44577 14.2771C5.26997 14.8906 6.26512 15.2314 7.29234 15.252C5.54842 16.6218 3.39417 17.3647 1.17656 17.3613C0.783287 17.3608 0.390396 17.3367 0 17.2891C2.25285 18.7344 4.87354 19.5022 7.55016 19.5007Z" fill-rule="nonzero"/></symbol></svg>