<svg width="171" height="27" viewBox="0 0 171 27" fill="none" xmlns="http://www.w3.org/2000/svg">
<path d="M6.19948 25.6462C5.57151 25.9689 4.86047 25.4049 4.98689 24.6842L6.3352 16.9988L0.61141 11.5443C0.0764918 11.0345 0.353392 10.1025 1.07 10.0007L9.03002 8.86988L12.5792 1.83925C12.8989 1.20593 13.765 1.20593 14.0847 1.83925L17.6339 8.86988L25.5939 10.0007C26.3105 10.1025 26.5874 11.0345 26.0525 11.5443L20.3287 16.9988L21.677 24.6842C21.8035 25.4049 21.0924 25.9689 20.4645 25.6462L13.332 21.9803L6.19948 25.6462Z" fill="#9D875C"/>
<path d="M42.1995 25.6462C41.5715 25.9689 40.8605 25.4049 40.9869 24.6842L42.3352 16.9988L36.6114 11.5443C36.0765 11.0345 36.3534 10.1025 37.07 10.0007L45.03 8.86988L48.5792 1.83925C48.8989 1.20593 49.765 1.20593 50.0847 1.83925L53.6339 8.86988L61.5939 10.0007C62.3105 10.1025 62.5874 11.0345 62.0525 11.5443L56.3287 16.9988L57.677 24.6842C57.8035 25.4049 57.0924 25.9689 56.4645 25.6462L49.332 21.9803L42.1995 25.6462Z" fill="#9D875C"/>
<path d="M78.1995 25.6462C77.5715 25.9689 76.8605 25.4049 76.9869 24.6842L78.3352 16.9988L72.6114 11.5443C72.0765 11.0345 72.3534 10.1025 73.07 10.0007L81.03 8.86988L84.5792 1.83925C84.8989 1.20593 85.765 1.20593 86.0847 1.83925L89.6339 8.86988L97.5939 10.0007C98.3105 10.1025 98.5874 11.0345 98.0525 11.5443L92.3287 16.9988L93.677 24.6842C93.8035 25.4049 93.0924 25.9689 92.4645 25.6462L85.332 21.9803L78.1995 25.6462Z" fill="#9D875C"/>
<path d="M114.199 25.6462C113.572 25.9689 112.86 25.4049 112.987 24.6842L114.335 16.9988L108.611 11.5443C108.076 11.0345 108.353 10.1025 109.07 10.0007L117.03 8.86988L120.579 1.83925C120.899 1.20593 121.765 1.20593 122.085 1.83925L125.634 8.86988L133.594 10.0007C134.311 10.1025 134.587 11.0345 134.053 11.5443L128.329 16.9988L129.677 24.6842C129.803 25.4049 129.092 25.9689 128.464 25.6462L121.332 21.9803L114.199 25.6462Z" fill="#9D875C"/>
<path d="M150.199 25.6462C149.572 25.9689 148.86 25.4049 148.987 24.6842L150.335 16.9988L144.611 11.5443C144.076 11.0345 144.353 10.1025 145.07 10.0007L153.03 8.86988L156.579 1.83925C156.899 1.20593 157.765 1.20593 158.085 1.83925L161.634 8.86988L169.594 10.0007C170.311 10.1025 170.587 11.0345 170.053 11.5443L164.329 16.9988L165.677 24.6842C165.803 25.4049 165.092 25.9689 164.464 25.6462L157.332 21.9803L150.199 25.6462Z" fill="#9D875C"/>
</svg>
