<svg width="174" height="28" viewBox="0 0 174 28" fill="none" xmlns="http://www.w3.org/2000/svg">
<path d="M7.19948 26.6462C6.57151 26.9689 5.86047 26.4049 5.98689 25.6842L7.3352 17.9988L1.61141 12.5443C1.07649 12.0345 1.35339 11.1025 2.07 11.0007L10.03 9.86988L13.5792 2.83925C13.8989 2.20593 14.765 2.20593 15.0847 2.83925L18.6339 9.86988L26.5939 11.0007C27.3105 11.1025 27.5874 12.0345 27.0525 12.5443L21.3287 17.9988L22.677 25.6842C22.8035 26.4049 22.0924 26.9689 21.4645 26.6462L14.332 22.9803L7.19948 26.6462Z" stroke="#9D875C" stroke-width="1.7"/>
<path d="M43.1995 26.6462C42.5715 26.9689 41.8605 26.4049 41.9869 25.6842L43.3352 17.9988L37.6114 12.5443C37.0765 12.0345 37.3534 11.1025 38.07 11.0007L46.03 9.86988L49.5792 2.83925C49.8989 2.20593 50.765 2.20593 51.0847 2.83925L54.6339 9.86988L62.5939 11.0007C63.3105 11.1025 63.5874 12.0345 63.0525 12.5443L57.3287 17.9988L58.677 25.6842C58.8035 26.4049 58.0924 26.9689 57.4645 26.6462L50.332 22.9803L43.1995 26.6462Z" stroke="#9D875C" stroke-width="1.7"/>
<path d="M79.1995 26.6462C78.5715 26.9689 77.8605 26.4049 77.9869 25.6842L79.3352 17.9988L73.6114 12.5443C73.0765 12.0345 73.3534 11.1025 74.07 11.0007L82.03 9.86988L85.5792 2.83925C85.8989 2.20593 86.765 2.20593 87.0847 2.83925L90.6339 9.86988L98.5939 11.0007C99.3105 11.1025 99.5874 12.0345 99.0525 12.5443L93.3287 17.9988L94.677 25.6842C94.8035 26.4049 94.0924 26.9689 93.4645 26.6462L86.332 22.9803L79.1995 26.6462Z" stroke="#9D875C" stroke-width="1.7"/>
<path d="M115.199 26.6462C114.572 26.9689 113.86 26.4049 113.987 25.6842L115.335 17.9988L109.611 12.5443C109.076 12.0345 109.353 11.1025 110.07 11.0007L118.03 9.86988L121.579 2.83925C121.899 2.20593 122.765 2.20593 123.085 2.83925L126.634 9.86988L134.594 11.0007C135.311 11.1025 135.587 12.0345 135.053 12.5443L129.329 17.9988L130.677 25.6842C130.803 26.4049 130.092 26.9689 129.464 26.6462L122.332 22.9803L115.199 26.6462Z" stroke="#9D875C" stroke-width="1.7"/>
<path d="M152.87 26.0944C152.242 26.4172 151.531 25.8531 151.657 25.1325L153.006 17.4471L147.282 11.9925C146.747 11.4828 147.024 10.5507 147.74 10.4489L155.7 9.31813L159.25 2.2875C159.569 1.65417 160.435 1.65417 160.755 2.2875L164.304 9.31813L172.264 10.4489C172.981 10.5507 173.258 11.4828 172.723 11.9925L166.999 17.4471L168.347 25.1325C168.474 25.8531 167.763 26.4172 167.135 26.0944L160.002 22.4285L152.87 26.0944Z" stroke="#9D875C" stroke-width="1.7"/>
</svg>
