<svg width="171" height="27" viewBox="0 0 171 27" fill="none" xmlns="http://www.w3.org/2000/svg">
<path fill-rule="evenodd" clip-rule="evenodd" d="M4.98451 23.8717C4.85809 24.5924 5.56913 25.1564 6.1971 24.8337L13.3296 21.1678L20.4621 24.8337C21.09 25.1564 21.8011 24.5924 21.6747 23.8717L20.3264 16.1863L26.0502 10.7318C26.5851 10.222 26.3082 9.28998 25.5916 9.18818L17.6315 8.05738L14.0823 1.02675C13.7626 0.393426 12.8966 0.393426 12.5768 1.02675L9.02764 8.05738L1.06762 9.18818C0.351012 9.28998 0.0741115 10.222 0.60903 10.7318L6.33282 16.1863L4.98451 23.8717ZM12.9545 19.3735L6.96515 22.4519L8.09331 16.0213C8.14649 15.7181 8.04649 15.4077 7.82885 15.2003L3.10523 10.6989L9.69023 9.76345C9.96245 9.72478 10.2001 9.55092 10.3285 9.29655L13.3296 3.35176L16.3306 9.29655C16.459 9.55092 16.6967 9.72478 16.9689 9.76345L23.5539 10.6989L18.8303 15.2003C18.6127 15.4077 18.5127 15.7181 18.5659 16.0213L19.694 22.4519L13.7047 19.3735C13.4681 19.2519 13.1911 19.2519 12.9545 19.3735Z" fill="#9D875C"/>
<path fill-rule="evenodd" clip-rule="evenodd" d="M40.9845 23.8717C40.8581 24.5924 41.5691 25.1564 42.1971 24.8337L49.3296 21.1678L56.4621 24.8337C57.09 25.1564 57.8011 24.5924 57.6747 23.8717L56.3264 16.1863L62.0502 10.7318C62.5851 10.222 62.3082 9.28998 61.5916 9.18818L53.6315 8.05738L50.0823 1.02675C49.7626 0.393426 48.8966 0.393426 48.5768 1.02675L45.0276 8.05738L37.0676 9.18818C36.351 9.28998 36.0741 10.222 36.609 10.7318L42.3328 16.1863L40.9845 23.8717ZM48.9545 19.3735L42.9651 22.4519L44.0933 16.0213C44.1465 15.7181 44.0465 15.4077 43.8288 15.2003L39.1052 10.6989L45.6902 9.76345C45.9624 9.72478 46.2001 9.55092 46.3285 9.29655L49.3296 3.35176L52.3306 9.29655C52.459 9.55092 52.6967 9.72478 52.9689 9.76345L59.5539 10.6989L54.8303 15.2003C54.6127 15.4077 54.5127 15.7181 54.5659 16.0213L55.694 22.4519L49.7047 19.3735C49.4681 19.2519 49.1911 19.2519 48.9545 19.3735Z" fill="#9D875C"/>
<path fill-rule="evenodd" clip-rule="evenodd" d="M76.9845 23.8717C76.8581 24.5924 77.5691 25.1564 78.1971 24.8337L85.3296 21.1678L92.4621 24.8337C93.09 25.1564 93.8011 24.5924 93.6747 23.8717L92.3264 16.1863L98.0502 10.7318C98.5851 10.222 98.3082 9.28998 97.5916 9.18818L89.6315 8.05738L86.0823 1.02675C85.7626 0.393426 84.8966 0.393426 84.5768 1.02675L81.0276 8.05738L73.0676 9.18818C72.351 9.28998 72.0741 10.222 72.609 10.7318L78.3328 16.1863L76.9845 23.8717ZM84.9545 19.3735L78.9651 22.4519L80.0933 16.0213C80.1465 15.7181 80.0465 15.4077 79.8288 15.2003L75.1052 10.6989L81.6902 9.76345C81.9624 9.72478 82.2001 9.55092 82.3285 9.29655L85.3296 3.35176L88.3306 9.29655C88.459 9.55092 88.6967 9.72478 88.9689 9.76345L95.5539 10.6989L90.8303 15.2003C90.6127 15.4077 90.5127 15.7181 90.5659 16.0213L91.694 22.4519L85.7047 19.3735C85.4681 19.2519 85.1911 19.2519 84.9545 19.3735Z" fill="#9D875C"/>
<path fill-rule="evenodd" clip-rule="evenodd" d="M112.985 23.8717C112.858 24.5924 113.569 25.1564 114.197 24.8337L121.33 21.1678L128.462 24.8337C129.09 25.1564 129.801 24.5924 129.675 23.8717L128.326 16.1863L134.05 10.7318C134.585 10.222 134.308 9.28998 133.592 9.18818L125.632 8.05738L122.082 1.02675C121.763 0.393426 120.897 0.393426 120.577 1.02675L117.028 8.05738L109.068 9.18818C108.351 9.28998 108.074 10.222 108.609 10.7318L114.333 16.1863L112.985 23.8717ZM120.954 19.3735L114.965 22.4519L116.093 16.0213C116.146 15.7181 116.046 15.4077 115.829 15.2003L111.105 10.6989L117.69 9.76345C117.962 9.72478 118.2 9.55092 118.329 9.29655L121.33 3.35176L124.331 9.29655C124.459 9.55092 124.697 9.72478 124.969 9.76345L131.554 10.6989L126.83 15.2003C126.613 15.4077 126.513 15.7181 126.566 16.0213L127.694 22.4519L121.705 19.3735C121.468 19.2519 121.191 19.2519 120.954 19.3735Z" fill="#9D875C"/>
<path fill-rule="evenodd" clip-rule="evenodd" d="M148.987 24.6842C148.86 25.4049 149.572 25.9689 150.199 25.6462L157.332 21.9803L164.464 25.6462C165.092 25.9689 165.803 25.4049 165.677 24.6842L164.329 16.9988L170.053 11.5443C170.587 11.0345 170.311 10.1025 169.594 10.0007L161.634 8.86988L158.085 1.83925C157.765 1.20593 156.899 1.20593 156.579 1.83925L153.03 8.86988L145.07 10.0007C144.353 10.1025 144.076 11.0345 144.611 11.5443L150.335 16.9988L148.987 24.6842ZM156.957 20.186L150.968 23.2644L152.096 16.8338C152.149 16.5306 152.049 16.2202 151.831 16.0128L147.108 11.5114L153.693 10.5759C153.965 10.5373 154.203 10.3634 154.331 10.109L157.332 4.16426L160.333 10.109C160.461 10.3634 160.699 10.5373 160.971 10.5759L167.556 11.5114L162.833 16.0128C162.615 16.2202 162.515 16.5306 162.568 16.8338L163.696 23.2644L157.707 20.186C157.47 20.0644 157.193 20.0644 156.957 20.186Z" fill="#9D875C"/>
</svg>
